<?xml version="1.0" standalone="no"?>
<!DOCTYPE svg PUBLIC "-//W3C//DTD SVG 20010904//EN"
 "http://www.w3.org/TR/2001/REC-SVG-20010904/DTD/svg10.dtd">
<svg version="1.0" xmlns="http://www.w3.org/2000/svg"
 width="300.000000pt" height="251.000000pt" viewBox="0 0 300.000000 251.000000"
 preserveAspectRatio="xMidYMid meet">
<metadata>
Created by potrace 1.10, written by Peter Selinger 2001-2011
</metadata>
<g transform="translate(0.000000,251.000000) scale(0.100000,-0.100000)"
fill="#0000ff" stroke="none">
<path d="M1082 1729 c-112 -19 -199 -87 -249 -194 -26 -56 -28 -69 -28 -185 1
-143 19 -206 80 -278 55 -64 130 -95 240 -100 50 -2 117 1 148 8 l57 11 0 38
0 37 -77 -13 c-136 -25 -227 -2 -293 73 -54 62 -64 96 -65 219 0 94 3 117 23
160 62 135 192 185 350 136 l60 -18 16 34 c9 18 16 36 16 38 0 9 -107 34 -165
39 -33 2 -84 0 -113 -5z"/>
<path d="M1923 1730 c-109 -23 -163 -84 -163 -185 0 -110 48 -164 200 -222
117 -45 170 -91 170 -147 0 -82 -50 -125 -155 -133 -55 -4 -162 12 -208 32
-16 7 -18 3 -15 -36 3 -43 4 -44 48 -56 66 -17 207 -16 269 3 128 38 186 180
119 291 -24 40 -58 61 -189 118 -117 51 -147 75 -156 128 -8 53 12 94 60 119
34 17 53 20 111 15 39 -2 90 -11 113 -19 40 -15 41 -14 52 9 6 13 11 30 11 38
0 31 -185 62 -267 45z"/>
<path d="M1500 1353 l0 -373 45 0 45 0 0 369 0 369 -45 4 -45 3 0 -372z"/>
</g>
</svg>
